<svg width="13" height="9" viewBox="0 0 13 9" fill="none" xmlns="http://www.w3.org/2000/svg">
<path id="Vector" d="M8.70898 8.83115C8.47285 8.64353 8.47285 8.30803 8.70898 8.10055L10.9205 6.18026H0.609375C0.272949 6.18026 0 5.94188 0 5.65052V0.529736C0 0.237278 0.272949 0 0.609375 0C0.945801 0 1.21875 0.237278 1.21875 0.529736V5.12078H10.9205L8.70898 3.18063C8.47285 2.99301 8.47285 2.65751 8.70898 2.45003C8.94766 2.24476 9.33359 2.24476 9.54941 2.45003L12.7994 5.27529C12.9416 5.37903 13 5.51367 13 5.63066C13 5.78737 12.9416 5.92201 12.7994 6.00589L9.54941 8.83115C9.33359 9.05628 8.94766 9.05628 8.70898 8.83115Z" fill="#164D50"/>
</svg>
