<svg width="20" height="20" viewBox="0 0 20 20" fill="none" xmlns="http://www.w3.org/2000/svg">
  <path d="M10.0056 8.49128L18.1799 0.313905C18.5998 -0.104635 19.2787 -0.104635 19.6584 0.313905C20.114 0.732444 20.114 1.4114 19.6584 1.82994L11.5199 10.0055L19.6584 18.1798C20.114 18.5997 20.114 19.2786 19.6584 19.6583C19.2787 20.1139 18.5998 20.1139 18.1799 19.6583L10.0056 11.5198L1.83005 19.6583C1.41151 20.1139 0.732556 20.1139 0.313972 19.6583C-0.104657 19.2786 -0.104657 18.5997 0.313972 18.1798L8.49139 10.0055L0.313972 1.82994C-0.104657 1.4114 -0.104657 0.732444 0.313972 0.313905C0.732556 -0.104635 1.41151 -0.104635 1.83005 0.313905L10.0056 8.49128Z" fill="#164D50"/>
</svg>