<svg width="24" height="24" viewBox="0 0 24 24" fill="none" xmlns="http://www.w3.org/2000/svg">
<path fill-rule="evenodd" clip-rule="evenodd" d="M16.2099 7.72084C13.7171 5.84468 10.2836 5.84468 7.79089 7.72084C7.41232 8.00578 7.00291 8.41169 6.04081 9.37379C5.54772 9.86688 5.37631 10.0418 5.26028 10.1959C4.45621 11.2643 4.45621 12.7358 5.26028 13.8041C5.37631 13.9582 5.54772 14.1331 6.04081 14.6262C7.00291 15.5883 7.41232 15.9942 7.79089 16.2792C10.2836 18.1553 13.7171 18.1553 16.2099 16.2792C16.5884 15.9942 16.9978 15.5883 17.9599 14.6262C18.453 14.1331 18.6244 13.9582 18.7405 13.8041C19.5445 12.7358 19.5445 11.2643 18.7405 10.196C18.6244 10.0418 18.453 9.86687 17.9599 9.37379C16.9978 8.41169 16.5884 8.00577 16.2099 7.72084ZM6.58818 6.12288C9.79314 3.71067 14.2076 3.71067 17.4126 6.12288C17.9181 6.50335 18.4326 7.01796 19.3033 7.88876L19.3741 7.95957C19.3939 7.97934 19.4134 7.99882 19.4326 8.01801C19.8454 8.43062 20.1265 8.71168 20.3384 8.99324C21.6785 10.7738 21.6785 13.2263 20.3384 15.0068C20.1265 15.2883 19.8454 15.5694 19.4326 15.982C19.4134 16.0012 19.3939 16.0207 19.3741 16.0405L19.3033 16.1113C18.4326 16.9821 17.9181 17.4967 17.4126 17.8771C14.2076 20.2894 9.79314 20.2894 6.58818 17.8771C6.08268 17.4967 5.56812 16.9821 4.69743 16.1113L4.6266 16.0405C4.60683 16.0207 4.58735 16.0012 4.56815 15.982C4.15538 15.5694 3.87423 15.2883 3.66231 15.0068C2.3222 13.2263 2.3222 10.7738 3.66231 8.99324C3.87423 8.71168 4.15539 8.43062 4.56816 8.018C4.58735 7.99881 4.60683 7.97934 4.6266 7.95957C4.65047 7.9357 4.67408 7.91209 4.69743 7.88874C5.56813 7.01795 6.08268 6.50334 6.58818 6.12288ZM11.9247 7.99999C11.9496 8 11.9748 8.00001 12.0004 8.00001C12.026 8.00001 12.0512 8 12.0761 7.99999C12.4661 7.99982 12.7737 7.99968 13.0479 8.0431C14.5455 8.2803 15.7201 9.45487 15.9573 10.9525C16.0007 11.2266 16.0006 11.5343 16.0004 11.9243C16.0004 11.9492 16.0004 11.9744 16.0004 12C16.0004 12.0256 16.0004 12.0508 16.0004 12.0757C16.0006 12.4657 16.0007 12.7734 15.9573 13.0475C15.7201 14.5452 14.5455 15.7197 13.0479 15.9569C12.7737 16.0003 12.4661 16.0002 12.0761 16C12.0512 16 12.026 16 12.0004 16C11.9748 16 11.9495 16 11.9246 16C11.5347 16.0002 11.227 16.0003 10.9529 15.9569C9.45523 15.7197 8.28066 14.5452 8.04346 13.0475C8.00004 12.7734 8.00018 12.4657 8.00035 12.0757C8.00036 12.0508 8.00037 12.0256 8.00037 12C8.00037 11.9744 8.00036 11.9492 8.00035 11.9243C8.00018 11.5343 8.00004 11.2266 8.04346 10.9525C8.28066 9.45487 9.45523 8.2803 10.9529 8.0431C11.227 7.99968 11.5347 7.99982 11.9247 7.99999ZM12.0004 10C11.4977 10 11.3627 10.0031 11.2657 10.0185C10.6239 10.1201 10.1205 10.6235 10.0188 11.2654C10.0035 11.3624 10.0004 11.4973 10.0004 12C10.0004 12.5027 10.0035 12.6377 10.0188 12.7347C10.1205 13.3765 10.6239 13.8799 11.2657 13.9815C11.3627 13.9969 11.4977 14 12.0004 14C12.5031 14 12.638 13.9969 12.735 13.9815C13.3769 13.8799 13.8802 13.3765 13.9819 12.7347C13.9973 12.6377 14.0004 12.5027 14.0004 12C14.0004 11.4973 13.9973 11.3624 13.9819 11.2654C13.8802 10.6235 13.3769 10.1201 12.735 10.0185C12.638 10.0031 12.5031 10 12.0004 10Z" fill="#164D50"/>
</svg>