<svg width="22" height="22" viewBox="0 0 22 22" fill="none" xmlns="http://www.w3.org/2000/svg">
<path d="M17.1558 16.8305C16.7313 16.8315 16.3109 16.7483 15.9187 16.586C15.5265 16.4236 15.1703 16.1852 14.8708 15.8844L11.5705 12.5842C11.4537 12.4732 11.2987 12.4113 11.1375 12.4113C10.9764 12.4113 10.8214 12.4732 10.7046 12.5842L7.39172 15.897C7.09225 16.1979 6.73611 16.4364 6.3439 16.5988C5.95169 16.7612 5.53118 16.8442 5.10668 16.8431H4.45605L8.63639 21.0234C9.94078 22.3278 12.0577 22.3278 13.3621 21.0234L17.5534 16.8305H17.1558ZM5.10668 5.15701C5.97103 5.15701 6.78196 5.49332 7.39172 6.10309L10.7046 9.41593C10.7615 9.47295 10.8291 9.51818 10.9035 9.54905C10.978 9.57991 11.0577 9.5958 11.1383 9.5958C11.2189 9.5958 11.2987 9.57991 11.3731 9.54905C11.4475 9.51818 11.5151 9.47295 11.5721 9.41593L14.8723 6.11566C15.1716 5.81499 15.5275 5.57658 15.9194 5.4142C16.3114 5.25182 16.7316 5.16868 17.1558 5.16958H17.5534L13.3621 0.978243C12.7352 0.351862 11.8854 0 10.9992 0C10.1131 0 9.2632 0.351862 8.63639 0.978243L4.45605 5.15858L5.10668 5.15701Z" fill="white"/>
<path d="M21.0219 8.63615L18.4886 6.1028C18.4317 6.12615 18.3709 6.13842 18.3094 6.13894H17.1575C16.5618 6.13894 15.9788 6.38096 15.5592 6.80214L12.2589 10.1024C12.1122 10.2499 11.9377 10.367 11.7455 10.4469C11.5533 10.5268 11.3473 10.5679 11.1392 10.5679C10.9311 10.5679 10.725 10.5268 10.5329 10.4469C10.3407 10.367 10.1662 10.2499 10.0195 10.1024L6.70661 6.788C6.28158 6.36471 5.70662 6.12637 5.10677 6.1248H3.69237C3.63374 6.12433 3.57568 6.11315 3.52107 6.0918L0.978293 8.63615C-0.326098 9.94054 -0.326098 12.0574 0.978293 13.3634L3.52107 15.9062C3.57508 15.8844 3.63259 15.8727 3.6908 15.8716H5.10677C5.70396 15.8716 6.28544 15.6311 6.70661 15.21L10.0179 11.8956C10.32 11.6079 10.7212 11.4474 11.1384 11.4474C11.5556 11.4474 11.9568 11.6079 12.2589 11.8956L15.5592 15.1958C15.9788 15.617 16.5618 15.8574 17.1575 15.8574H18.3094C18.3723 15.8574 18.4336 15.8732 18.4886 15.8952L21.0219 13.3618C22.3263 12.0574 22.3263 9.94054 21.0219 8.63615Z" fill="white"/>
</svg>