<svg width="45" height="20" viewBox="0 0 45 20" fill="none" xmlns="http://www.w3.org/2000/svg">
<path d="M5.21899 0H3.08398V8.83438H5.21899V0Z" fill="#01A878"/>
<path d="M6.55487 0H5.8916V8.83438H6.55487V0Z" fill="#01A878"/>
<path d="M8.31708 0H7.13184V8.83438H8.31708V0Z" fill="#01A878"/>
<path d="M10.1208 0H9.45752V8.83438H10.1208V0Z" fill="#01A878"/>
<path d="M10.9174 0H10.4072V8.83438H10.9174V0Z" fill="#01A878"/>
<path fill-rule="evenodd" clip-rule="evenodd" d="M1.46045 0H2.12371V20H1.46045V0Z" fill="#01A878"/>
<path fill-rule="evenodd" clip-rule="evenodd" d="M0 0H1.18524V20H0V0Z" fill="#01A878"/>
<path d="M16.594 0H14.4551V8.83438H16.594V0Z" fill="#01A878"/>
<path d="M17.9269 0H17.2637V8.83438H17.9269V0Z" fill="#01A878"/>
<path d="M19.6891 0H18.5039V8.83438H19.6891V0Z" fill="#01A878"/>
<path d="M21.4923 0H20.833V8.83438H21.4923V0Z" fill="#01A878"/>
<path d="M22.2919 0H21.7817V8.83438H22.2919V0Z" fill="#01A878"/>
<path d="M13.4924 0H12.8291V8.83438H13.4924V0Z" fill="#01A878"/>
<path d="M12.5539 0H11.3726V8.83438H12.5539V0Z" fill="#01A878"/>
<path d="M24.3137 0H23.1284V8.83438H24.3137V0Z" fill="#01A878"/>
<path d="M26.1179 0H25.4546V8.83438H26.1179V0Z" fill="#01A878"/>
<path d="M26.9145 0H26.4043V8.83438H26.9145V0Z" fill="#01A878"/>
<path d="M29.4943 0H28.8311V8.83438H29.4943V0Z" fill="#01A878"/>
<path d="M28.5554 0H27.3701V8.83438H28.5554V0Z" fill="#01A878"/>
<path d="M31.0334 0H30.374V8.83438H31.0334V0Z" fill="#01A878"/>
<path d="M31.8339 0H31.3237V8.83438H31.8339V0Z" fill="#01A878"/>
<path d="M34.4079 0H33.7446V8.83438H34.4079V0Z" fill="#01A878"/>
<path d="M33.4684 0H32.2832V8.83438H33.4684V0Z" fill="#01A878"/>
<path d="M37.1199 0H34.9849V8.83438H37.1199V0Z" fill="#01A878"/>
<path d="M38.4543 0H37.7949V8.83438H38.4543V0Z" fill="#01A878"/>
<path d="M40.2155 0H39.0303V8.83438H40.2155V0Z" fill="#01A878"/>
<path d="M42.0217 0H41.3584V8.83438H42.0217V0Z" fill="#01A878"/>
<path d="M42.8183 0H42.3081V8.83438H42.8183V0Z" fill="#01A878"/>
<path fill-rule="evenodd" clip-rule="evenodd" d="M43.6567 0H44.842V20H43.6567V0Z" fill="#01A878"/>
<path d="M3.18701 19.6159V9.47461H6.99392C7.76707 9.47461 8.38717 9.57665 8.85813 9.78073C9.32516 9.98481 9.69015 10.3027 9.95703 10.7305C10.2239 11.1544 10.3573 11.6018 10.3573 12.0688C10.3573 12.5005 10.2396 12.9087 10.0041 13.2933C9.76864 13.674 9.41543 13.984 8.94054 14.2195C9.55279 14.4 10.0277 14.7062 10.3534 15.1418C10.6831 15.5735 10.8479 16.0876 10.8479 16.6763C10.8479 17.1512 10.7459 17.5947 10.5457 18.0029C10.3456 18.411 10.0983 18.725 9.80397 18.9487C9.50962 19.1685 9.13678 19.3372 8.69329 19.4511C8.24588 19.5649 7.70036 19.6198 7.05671 19.6198H3.18701V19.6159ZM4.53317 13.7368H6.72704C7.32359 13.7368 7.74745 13.6975 8.00648 13.619C8.34792 13.517 8.60695 13.3482 8.77963 13.1128C8.95232 12.8773 9.03866 12.5829 9.03866 12.2258C9.03866 11.8883 8.96017 11.59 8.79533 11.3349C8.63442 11.0759 8.40287 10.8993 8.10459 10.8051C7.80632 10.7109 7.28827 10.6638 6.56221 10.6638H4.53317V13.7368ZM4.53317 18.4267H7.06064C7.49627 18.4267 7.79847 18.411 7.97508 18.3757C8.2812 18.3208 8.54023 18.2305 8.74824 18.101C8.95624 17.9715 9.125 17.7831 9.26237 17.5358C9.3958 17.2886 9.46252 17.0021 9.46252 16.6803C9.46252 16.2996 9.36441 15.9738 9.16817 15.6913C8.97587 15.4087 8.70507 15.2164 8.3597 15.1026C8.01825 14.9887 7.51982 14.9338 6.87618 14.9338H4.52924V18.4307L4.53317 18.4267Z" fill="#01A878"/>
<path d="M12.0674 15.9359C12.0674 14.578 12.4441 13.5733 13.2016 12.9179C13.8335 12.3763 14.6027 12.1055 15.5132 12.1055C16.5219 12.1055 17.346 12.4351 17.9897 13.0984C18.6294 13.7577 18.9512 14.6722 18.9512 15.8339C18.9512 16.7797 18.8099 17.5176 18.5274 18.0592C18.2448 18.6008 17.8327 19.0207 17.2872 19.319C16.7456 19.6172 16.1529 19.7664 15.5132 19.7664C14.485 19.7664 13.6529 19.4367 13.0171 18.7813C12.3814 18.122 12.0674 17.1722 12.0674 15.9359ZM13.3429 15.9359C13.3429 16.8739 13.547 17.5804 13.9591 18.0435C14.3712 18.5105 14.8892 18.746 15.5132 18.746C16.1372 18.746 16.6474 18.5105 17.0595 18.0435C17.4716 17.5725 17.6757 16.8582 17.6757 15.8967C17.6757 14.9901 17.4677 14.3033 17.0556 13.8402C16.6435 13.3731 16.1294 13.1377 15.5132 13.1377C14.8971 13.1377 14.3712 13.3692 13.9591 13.8323C13.547 14.2954 13.3429 14.9979 13.3429 15.9359Z" fill="#01A878"/>
<path d="M20.3853 19.6159V9.47461H21.6333V19.6159H20.3853Z" fill="#01A878"/>
<path d="M28.5757 17.2311L29.863 17.3998C29.6629 18.1494 29.2861 18.7303 28.7406 19.1463C28.1911 19.5584 27.4925 19.7664 26.6409 19.7664C25.5695 19.7664 24.7178 19.4367 24.0899 18.7734C23.4619 18.1141 23.1479 17.1879 23.1479 15.9948C23.1479 14.8017 23.4658 13.8048 24.0977 13.1259C24.7335 12.443 25.5577 12.1055 26.5702 12.1055C27.5828 12.1055 28.352 12.4391 28.9721 13.1063C29.5922 13.7734 29.9062 14.7154 29.9062 15.9242C29.9062 15.9987 29.9062 16.1086 29.8983 16.2538H24.4235C24.4706 17.0584 24.6982 17.6785 25.1063 18.1063C25.5145 18.534 26.0286 18.7499 26.637 18.7499C27.0922 18.7499 27.4808 18.6282 27.8026 18.3888C28.1244 18.1494 28.3795 17.7648 28.5718 17.235L28.5757 17.2311ZM24.498 15.2334H28.5914C28.5365 14.6133 28.3795 14.1541 28.1205 13.8441C27.728 13.3653 27.21 13.1259 26.582 13.1259C26.009 13.1259 25.5302 13.3182 25.1417 13.6989C24.7531 14.0796 24.5412 14.5937 24.498 15.2373V15.2334Z" fill="#01A878"/>
<path d="M34.1454 18.5003L34.3142 19.5992C33.9649 19.6737 33.6509 19.7091 33.3762 19.7091C32.9249 19.7091 32.5756 19.6384 32.3244 19.4932C32.0771 19.348 31.9005 19.1635 31.7985 18.9281C31.6964 18.6926 31.6493 18.202 31.6493 17.4563V13.2216H30.7271V12.2601H31.6493V10.443L32.8974 9.69336V12.2601H34.1454V13.2216H32.8974V17.527C32.8974 17.8841 32.917 18.1117 32.9641 18.2138C33.0073 18.3158 33.0779 18.3943 33.176 18.4571C33.2741 18.516 33.4154 18.5474 33.5999 18.5474C33.7373 18.5474 33.9178 18.5317 34.1415 18.4963L34.1454 18.5003Z" fill="#01A878"/>
<path d="M34.9067 15.9359C34.9067 14.578 35.2835 13.5733 36.041 12.9179C36.6728 12.3763 37.4421 12.1055 38.3526 12.1055C39.3612 12.1055 40.1854 12.4351 40.829 13.0984C41.4687 13.7577 41.7906 14.6722 41.7906 15.8339C41.7906 16.7797 41.6493 17.5176 41.3667 18.0592C41.0841 18.6008 40.672 19.0207 40.1265 19.319C39.5849 19.6172 38.9923 19.7664 38.3526 19.7664C37.3243 19.7664 36.4923 19.4367 35.8565 18.7813C35.2207 18.122 34.9067 17.1722 34.9067 15.9359ZM36.1822 15.9359C36.1822 16.8739 36.3863 17.5804 36.7984 18.0435C37.2105 18.5105 37.7286 18.746 38.3526 18.746C38.9766 18.746 39.4868 18.5105 39.8989 18.0435C40.311 17.5725 40.5151 16.8582 40.5151 15.8967C40.5151 14.9901 40.3071 14.3033 39.895 13.8402C39.4829 13.3731 38.9687 13.1377 38.3526 13.1377C37.7364 13.1377 37.2105 13.3692 36.7984 13.8323C36.3863 14.2954 36.1822 14.9979 36.1822 15.9359Z" fill="#01A878"/>
</svg>
