<svg width="25" height="20" viewBox="0 0 25 20" fill="none" xmlns="http://www.w3.org/2000/svg">
<path d="M7.29167 13.5714C7.86892 13.5714 8.33333 14.0491 8.33333 14.6429C8.33333 15.2366 7.86892 15.7143 7.29167 15.7143H5.20833C4.63108 15.7143 4.16667 15.2366 4.16667 14.6429C4.16667 14.0491 4.63108 13.5714 5.20833 13.5714H7.29167ZM15.625 13.5714C16.2023 13.5714 16.6667 14.0491 16.6667 14.6429C16.6667 15.2366 16.2023 15.7143 15.625 15.7143H10.7639C10.1866 15.7143 9.72222 15.2366 9.72222 14.6429C9.72222 14.0491 10.1866 13.5714 10.7639 13.5714H15.625ZM22.2222 0C23.7543 0 25 1.27902 25 2.85714V17.1429C25 18.7188 23.7543 20 22.2222 20H2.77778C1.24349 20 0 18.7188 0 17.1429V2.85714C0 1.27902 1.24349 0 2.77778 0H22.2222ZM22.2222 2.14286H2.77778C2.3941 2.14286 2.08333 2.4625 2.08333 2.85714V4.28571H22.9167V2.85714C22.9167 2.4625 22.6042 2.14286 22.2222 2.14286ZM22.9167 8.57143H2.08333V17.1429C2.08333 17.5357 2.3941 17.8571 2.77778 17.8571H22.2222C22.6042 17.8571 22.9167 17.5357 22.9167 17.1429V8.57143Z" fill="white"/>
</svg>