<svg width="19" height="19" viewBox="0 0 19 19" fill="none" xmlns="http://www.w3.org/2000/svg">
  <g id="Group 1696">
    <rect id="Icon/Checkbox/Unfilled" width="19" height="19" rx="9.5" fill="#DFE6E4"/>
    <path id="Vector" d="M8.83053 9.50193L6.03919 6.7112L6.03919 6.7112C5.85361 6.52565 5.8536 6.2247 6.03918 6.03915L8.83053 9.50193ZM8.83053 9.50193L6.03919 12.2922L6.03907 12.2923C5.8568 12.4751 5.85042 12.7764 6.03932 12.9514C6.22518 13.1501 6.52732 13.1495 6.71256 12.9498L9.50195 10.173L12.2909 12.9498C12.4735 13.1461 12.7761 13.1534 12.9513 12.9513C13.1534 12.7761 13.1461 12.4735 12.9498 12.2909L10.173 9.50193L12.9498 6.71252C13.1495 6.52729 13.1501 6.22514 12.9514 6.03929C12.7764 5.85044 12.4751 5.85681 12.2923 6.03904L12.2922 6.03917L9.50195 8.83051L6.71123 6.03916L6.71122 6.03916C6.52568 5.85361 6.22474 5.85362 6.03919 6.03915L8.83053 9.50193Z" fill="#164D50" stroke="#164D50" stroke-width="0.2"/>
  </g>
</svg>