<svg width="20" height="20" viewBox="0 0 20 20" fill="none" xmlns="http://www.w3.org/2000/svg">
<g id="edit">
<path id="Vector" d="M17 4.81893C17 4.35729 16.9997 4.1263 16.9043 3.94997C16.8204 3.79488 16.6871 3.66887 16.5224 3.58984C16.3352 3.5 16.0897 3.5 15.5997 3.5H4.39966C3.90961 3.5 3.66483 3.5 3.47766 3.58984C3.31302 3.66887 3.17926 3.79488 3.09537 3.94997C3 4.1263 3 4.35729 3 4.81893V5.42664C3 5.62825 3 5.72913 3.02418 5.82399C3.04561 5.9081 3.08105 5.98844 3.12903 6.06219C3.18312 6.14535 3.25892 6.21675 3.41016 6.35922L7.84005 10.5323C7.99138 10.6749 8.06663 10.7458 8.12074 10.829C8.16872 10.9027 8.20464 10.9833 8.22607 11.0674C8.25 11.1613 8.25 11.261 8.25 11.4586V15.3787C8.25 16.0853 8.25 16.4388 8.40798 16.6516C8.54592 16.8374 8.75873 16.9613 8.99683 16.9944C9.2695 17.0324 9.60512 16.8746 10.276 16.5586L10.976 16.2289C11.2569 16.0965 11.3971 16.0301 11.4997 15.9314C11.5904 15.8441 11.6599 15.7393 11.7021 15.6238C11.75 15.4932 11.75 15.3449 11.75 15.049V11.4647C11.75 11.2631 11.75 11.1623 11.7742 11.0674C11.7956 10.9833 11.8311 10.9027 11.879 10.829C11.9328 10.7463 12.0078 10.6756 12.1572 10.535L12.1602 10.5323L16.5901 6.35922C16.7414 6.21666 16.8166 6.14538 16.8707 6.06219C16.9187 5.98844 16.9546 5.9081 16.9761 5.82399C17 5.7301 17 5.6303 17 5.43277V4.81893Z" stroke="#164D50" stroke-width="1.5" stroke-linecap="round" stroke-linejoin="round"/>
</g>
</svg>
