<svg width="44" height="44" viewBox="0 0 44 44" fill="none" xmlns="http://www.w3.org/2000/svg">
<g clip-path="url(#clip0_188_3)">
<path fill-rule="evenodd" clip-rule="evenodd" d="M31.119 16.5005L25.003 11.9795C23.214 10.6735 20.786 10.6735 18.997 11.9795L12.892 16.5005C11.71 17.3521 11.0067 18.7177 11 20.1745V28.3475C11.066 30.9801 13.2513 33.062 15.884 33.0005H28.116C30.7487 33.062 32.934 30.9801 33 28.3475V20.1635C32.9906 18.713 32.2924 17.3533 31.119 16.5005ZM31.3504 28.3475C31.2848 30.069 29.838 31.4124 28.1164 31.3505H15.8844C14.1651 31.4063 12.7219 30.0662 12.6504 28.3475V20.1745C12.6563 19.2394 13.1104 18.3639 13.8714 17.8205L19.9764 13.3105C21.1821 12.43 22.8187 12.43 24.0244 13.3105L30.1294 17.8315C30.8898 18.3655 31.3447 19.2344 31.3504 20.1635V28.3475ZM17.0496 26.6254H26.9496C27.4052 26.6254 27.7746 26.9947 27.7746 27.4504C27.7746 27.906 27.4052 28.2754 26.9496 28.2754H17.0496C16.594 28.2754 16.2246 27.906 16.2246 27.4504C16.2246 26.9947 16.594 26.6254 17.0496 26.6254Z" fill="#2AD87C"/>
</g>
<defs>
<clipPath id="clip0_188_3">
<rect width="22" height="22" fill="white" transform="translate(11 11)"/>
</clipPath>
</defs>
</svg>