<svg width="512" height="512" viewBox="0 0 512 512" fill="none" xmlns="http://www.w3.org/2000/svg">
  <path d="M130.32 405.098C128.993 410.487 128.728 420.006 139.214 434.568C165.32 449.432 191.471 464.254 217.577 479.119C240.63 492.246 269.523 475.99 269.657 449.78C269.657 449.563 269.657 449.432 269.657 449.172C269.479 439.175 269.17 412.182 268.683 349.505C166.736 377.801 135.276 384.929 130.276 405.098H130.32Z" fill="#01A878"/>
  <path d="M130.328 405.079C129 410.47 128.735 419.988 139.222 434.549C134.177 431.986 126.39 427.161 120.239 418.685C109.974 404.645 110.151 388.781 110.107 383.434C109.62 309.238 109.487 221.091 109 113.514C108.912 95.3887 121.7 79.6541 139.708 75.6988L354.001 28.93C378.336 23.6272 401.434 41.6654 401.699 66.1365C402.407 134.682 406.168 205.053 402.23 262.904C401.169 278.334 400.682 287.549 394.045 297.329C377.009 322.323 346.434 329.841 312.496 337.23C175.284 376.175 135.992 382.261 130.328 405.079Z" fill="#2AD87C"/>
</svg>