<svg width="69" height="69" viewBox="0 0 69 69" fill="none" xmlns="http://www.w3.org/2000/svg">
<path d="M49 0H20C8.9543 0 0 8.9543 0 20V49C0 60.0457 8.9543 69 20 69H49C60.0457 69 69 60.0457 69 49V20C69 8.9543 60.0457 0 49 0Z" fill="#FFEBE9"/>
<g clip-path="url(#clip0_2_10)">
<path d="M30.3571 43.7812C30.3571 44.3484 29.8911 44.8125 29.3214 44.8125C28.7518 44.8125 28.2857 44.3484 28.2857 43.7812V30.375C28.2857 29.8078 28.7518 29.3438 29.3214 29.3438C29.8911 29.3438 30.3571 29.8078 30.3571 30.375V43.7812ZM35.5357 43.7812C35.5357 44.3484 35.0696 44.8125 34.5 44.8125C33.9304 44.8125 33.4643 44.3484 33.4643 43.7812V30.375C33.4643 29.8078 33.9304 29.3438 34.5 29.3438C35.0696 29.3438 35.5357 29.8078 35.5357 30.375V43.7812ZM40.7143 43.7812C40.7143 44.3484 40.2482 44.8125 39.6786 44.8125C39.1089 44.8125 38.6429 44.3484 38.6429 43.7812V30.375C38.6429 29.8078 39.1089 29.3438 39.6786 29.3438C40.2482 29.3438 40.7143 29.8078 40.7143 30.375V43.7812ZM40.5525 19.6075L42.9281 23.1562H47.4464C48.3074 23.1562 49 23.8491 49 24.7031C49 25.5604 48.3074 26.25 47.4464 26.25H46.9286V45.8438C46.9286 48.6926 44.6112 51 41.75 51H27.25C24.3901 51 22.0714 48.6926 22.0714 45.8438V26.25H21.5536C20.6959 26.25 20 25.5604 20 24.7031C20 23.8491 20.6959 23.1562 21.5536 23.1562H26.0732L28.4475 19.6075C29.1208 18.6031 30.2536 18 31.4641 18H37.5359C38.7464 18 39.8792 18.6032 40.5525 19.6075ZM29.8069 23.1562H39.1931L37.9632 21.3232C37.8661 21.1801 37.7042 21.0938 37.5359 21.0938H31.4641C31.2958 21.0938 31.0757 21.1801 31.0368 21.3232L29.8069 23.1562ZM25.1786 45.8438C25.1786 46.9846 26.1062 47.9062 27.25 47.9062H41.75C42.8958 47.9062 43.8214 46.9846 43.8214 45.8438V26.25H25.1786V45.8438Z" fill="#FF4E4E"/>
</g>
<defs>
<clipPath id="clip0_2_10">
<rect width="29" height="33" fill="white" transform="translate(20 18)"/>
</clipPath>
</defs>
</svg>
