<svg width="19" height="19" viewBox="0 0 19 19" fill="none" xmlns="http://www.w3.org/2000/svg">
<g id="Group 1463">
<rect id="Icon/Checkbox/Unfilled" width="19" height="19" rx="9.5" fill="#DFE6E4"/>
<path id="Vector" d="M9.50009 3C9.93029 3 10.2779 3.36385 10.2779 3.8125V4.71844C10.3167 4.72377 10.3532 4.72961 10.3921 4.73545C10.6497 4.77557 11.4177 4.9048 11.7337 4.98834C12.1275 5.09854 12.4021 5.5416 12.2952 5.97578C12.1906 6.40996 11.7677 6.67402 11.3497 6.56484C11.1237 6.48105 10.4358 6.38457 10.1636 6.34395C9.38343 6.22207 8.71505 6.28301 8.25569 6.46582C7.81139 6.64355 7.62692 6.89492 7.57807 7.17676C7.53091 7.44844 7.56664 7.60332 7.60942 7.6998C7.65535 7.80137 7.74504 7.91563 7.92368 8.04004C8.31888 8.31172 8.92164 8.49453 9.70426 8.71543L9.77231 8.73574C10.4626 8.93125 11.3084 9.17246 11.9354 9.60664C12.2781 9.84531 12.6014 10.1678 12.8007 10.6146C13.0024 11.0666 13.0462 11.5744 12.9538 12.0924C12.7837 13.0801 12.1275 13.725 11.357 14.0602C11.0264 14.2023 10.6619 14.2937 10.2779 14.3395V15.1875C10.2779 15.6369 9.93029 16 9.50009 16C9.0699 16 8.72234 15.6369 8.72234 15.1875V14.3014C8.71262 14.3014 8.70046 14.276 8.69074 14.2963H8.68588C8.09527 14.1998 7.11992 13.9332 6.46199 13.6285C6.06946 13.4457 5.89277 12.9658 6.06727 12.5545C6.24178 12.1457 6.70139 11.9604 7.07204 12.1432C7.60188 12.3793 8.43797 12.6104 8.92164 12.6891C9.69939 12.8109 10.3386 12.7398 10.7712 12.557C11.182 12.3818 11.3691 12.1279 11.4226 11.8232C11.4688 11.5516 11.4348 11.3967 11.391 11.3002C11.3448 11.1986 11.2549 11.0844 11.0775 10.96C10.6813 10.6883 10.0786 10.5055 9.29593 10.2846L9.22788 10.2643C8.53762 10.0688 7.69133 9.82754 7.06377 9.39336C6.72083 9.15469 6.39952 8.83223 6.19998 8.38535C5.99752 7.9334 5.95353 7.42559 6.04759 6.88477C6.21967 5.89707 6.90069 5.26713 7.70056 4.94822C8.01701 4.82203 8.3602 4.739 8.72234 4.69432V3.8125C8.72234 3.36385 9.0699 3 9.50009 3Z" fill="#5F8789"/>
</g>
</svg>